# xmcd CD database file
#
# Track frame offsets:
#	150
#	17320
#	40335
#	58712
#	77315
#	97032
#	113825
#	132682
#	152457
#	168707
#
# Disc length: 2480 seconds
#
# Revision: 3
# Processed by: cddbd v1.4PL0 Copyright (c) Steve Scherf et al.
# Submitted via: CDex 1.51
#
DISCID=7709ae0a
DTITLE=Tony Rich Project - Words
DYEAR=1995
DGENRE=R&B
TTITLE0=Hey Blue
TTITLE1=Nobody Knows
TTITLE2=Like A Woman
TTITLE3=Grass Is Green
TTITLE4=Ghost
TTITLE5=Leavin
TTITLE6=Billy Goat
TTITLE7=Under Her Spell
TTITLE8=Little Ones
TTITLE9=Missin' You
EXTD=YEAR: 1995
EXTT0=
EXTT1=
EXTT2=
EXTT3=
EXTT4=
EXTT5=
EXTT6=
EXTT7=
EXTT8=
EXTT9=
PLAYORDER=
